<svg width="23" height="14" viewBox="0 0 23 14" fill="currentColor" xmlns="http://www.w3.org/2000/svg">
<path d="M19.2422 10C19.8589 10 20.3635 10.45 20.3635 11C20.3635 11.55 19.8589 12 19.2422 12C18.6256 12 18.121 11.55 18.121 11C18.121 10.45 18.6256 10 19.2422 10ZM19.2422 8C17.381 8 15.8786 9.34 15.8786 11C15.8786 12.66 17.381 14 19.2422 14C21.1035 14 22.6059 12.66 22.6059 11C22.6059 9.34 21.1035 8 19.2422 8ZM9.15134 1H3.54528V3H9.15134V1ZM16.9998 0H13.6362V2H16.9998V4.65L13.0756 9H9.15134V4H4.66649C2.18861 4 0.181641 5.79 0.181641 8V11H2.42406C2.42406 12.66 3.92649 14 5.7877 14C7.64891 14 9.15134 12.66 9.15134 11H14.1968L19.2422 5.35V2C19.2422 1.46957 19.006 0.960859 18.5855 0.585786C18.1649 0.210714 17.5946 0 16.9998 0ZM5.7877 12C5.17103 12 4.66649 11.55 4.66649 11H6.90891C6.90891 11.55 6.40437 12 5.7877 12Z" fill="currentColor"/>
</svg>
