<svg width="25" height="25" viewBox="0 0 25 25" fill="none" xmlns="http://www.w3.org/2000/svg">
<path d="M10.8236 1.98854C11.0131 1.68598 11.2764 1.43654 11.5887 1.26363C11.9011 1.09071 12.2523 1 12.6093 1C12.9663 1 13.3175 1.09071 13.6298 1.26363C13.9422 1.43654 14.2055 1.68598 14.395 1.98854L17.8593 7.47068L22.3771 8.02425C22.7518 8.06611 23.108 8.20945 23.4072 8.4388C23.7065 8.66815 23.9375 8.97482 24.0753 9.32576C24.2131 9.6767 24.2525 10.0586 24.1892 10.4303C24.126 10.802 23.9625 11.1493 23.7164 11.435L19.9486 15.7564L21.1629 21.7385C21.239 22.1289 21.2021 22.5328 21.0566 22.9029C20.9111 23.273 20.663 23.5939 20.3414 23.8278C20.0158 24.0575 19.6322 24.191 19.2344 24.2131C18.8365 24.2352 18.4405 24.145 18.0914 23.9528L12.6093 20.9528L7.12714 23.9528C6.77811 24.145 6.38206 24.2352 5.98421 24.2131C5.58636 24.191 5.20274 24.0575 4.87714 23.8278C4.55559 23.5939 4.30748 23.273 4.16197 22.9029C4.01647 22.5328 3.9796 22.1289 4.05572 21.7385L5.27 15.7564L1.50214 11.435C1.25605 11.1493 1.09257 10.802 1.02934 10.4303C0.966109 10.0586 1.00552 9.6767 1.14332 9.32576C1.28112 8.97482 1.51209 8.66815 1.81133 8.4388C2.11057 8.20945 2.46674 8.06611 2.84143 8.02425L7.35929 7.47068L10.8236 1.98854Z" stroke="black" stroke-linecap="round" stroke-linejoin="round"/>
</svg>
