<svg width="50" height="50" viewBox="0 0 50 50" fill="none" xmlns="http://www.w3.org/2000/svg">
<g clip-path="url(#clip0_7_329)">
<path d="M24.9999 25C22.7083 25 20.7464 24.184 19.1145 22.5521C17.4826 20.9201 16.6666 18.9583 16.6666 16.6667C16.6666 14.375 17.4826 12.4132 19.1145 10.7812C20.7464 9.1493 22.7083 8.33333 24.9999 8.33333C27.2916 8.33333 29.2534 9.1493 30.8853 10.7812C32.5173 12.4132 33.3333 14.375 33.3333 16.6667C33.3333 18.9583 32.5173 20.9201 30.8853 22.5521C29.2534 24.184 27.2916 25 24.9999 25ZM8.33325 41.6667V35.8333C8.33325 34.6528 8.63742 33.5674 9.24575 32.5771C9.85409 31.5868 10.661 30.8319 11.6666 30.3125C13.8194 29.2361 16.0069 28.4285 18.2291 27.8896C20.4513 27.3507 22.7083 27.0819 24.9999 27.0833C27.2916 27.0833 29.5485 27.3528 31.7708 27.8917C33.993 28.4305 36.1805 29.2375 38.3333 30.3125C39.3402 30.8333 40.1478 31.5889 40.7562 32.5792C41.3645 33.5694 41.668 34.6542 41.6666 35.8333V41.6667H8.33325Z" fill="black"/>
</g>
<defs>
<clipPath id="clip0_7_329">
<rect width="50" height="50" fill="white"/>
</clipPath>
</defs>
</svg>
